<?xml version="1.0" encoding="UTF-8" standalone="no"?><svg xmlns="http://www.w3.org/2000/svg" xmlns:xlink="http://www.w3.org/1999/xlink" fill="#343434" height="496.2" preserveAspectRatio="xMidYMid meet" version="1" viewBox="-0.0 -0.0 229.1 496.2" width="229.1" zoomAndPan="magnify"><g data-name="Layer 18" id="change1_1"><path d="M69.94,31.88l51.3,29.62,51.31-29.62L121.24,2.26ZM173.6,33.7,122.29,63.32v59.24L173.6,92.94Zm0,61.67L110,132.11l51.3,29.62,12.34-7.12Zm-54.46,29L67.84,94.76,3.15,132.11l51.3,29.62ZM214.93,211,175.7,233.69v58.49L227,262.56V204.07Zm-94.73-8.93L55.5,164.76V224l118.1,68.18V233.69l-52.88-30.53a1,1,0,0,1-.53-.91C120.19,202.2,120.2,202.16,120.2,202.11ZM227,265.73,110,333.31l51.3,29.62L227,325ZM3.15,333.31l51.3,29.62,118.1-68.18-51.31-29.62ZM227,404.52l-51.3,29.62v59.24L227,463.76ZM55.5,366l118.1,68.18v59.24L55.5,425.2ZM67.31,31l-.16.12-.14.15-.11.18-.07.19,0,.2V92.94L.53,131.2l-.17.12-.14.15-.11.17-.07.19L0,132v61.73a1,1,0,0,0,.53.91l119.26,68.86L.53,332.4l-.17.12-.14.15-.11.17L0,333l0,.2V395a1,1,0,0,0,.53.91L174.12,496.11l.19.09.2,0h.2l.21,0,.19-.08.06,0,53.41-30.83a1.07,1.07,0,0,0,.52-.91V402.7l0-.2-.06-.2-.1-.18-.06-.09-.14-.14-.14-.1-65.22-37.65,65.22-37.65a1.05,1.05,0,0,0,.52-.91V201.5a1.07,1.07,0,0,0-.52-.91l-65.22-37.65,11.81-6.82a1,1,0,0,0,.53-.91V31.88l0-.2-.06-.2-.1-.18-.13-.16-.16-.13-.06,0L121.77.14a1,1,0,0,0-1,0Z" fill-rule="evenodd"/></g></svg>